<svg width="16" height="20" viewBox="0 0 16 20" fill="none" xmlns="http://www.w3.org/2000/svg">
<path d="M14.1497 7.14544L13.8497 16.2257C13.8241 17.0034 13.4965 17.7405 12.9364 18.2806C12.3763 18.8206 11.6277 19.1212 10.8497 19.1184H5.14965C4.37207 19.1212 3.62397 18.8211 3.06394 18.2816C2.50391 17.7422 2.17597 17.0058 2.14965 16.2287L1.84965 7.14544C1.84309 6.94653 1.91581 6.75316 2.05182 6.60787C2.18783 6.46257 2.37599 6.37726 2.5749 6.3707C2.77382 6.36413 2.96719 6.43685 3.11248 6.57286C3.25778 6.70887 3.34309 6.89703 3.34965 7.09594L3.64965 16.1784C3.66459 16.5662 3.8292 16.933 4.1089 17.202C4.3886 17.4709 4.76164 17.621 5.14965 17.6207H10.8497C11.2382 17.621 11.6116 17.4705 11.8914 17.2009C12.1712 16.9313 12.3355 16.5637 12.3497 16.1754L12.6497 7.09594C12.6562 6.89703 12.7415 6.70887 12.8868 6.57286C13.0321 6.43685 13.2255 6.36413 13.4244 6.3707C13.6233 6.37726 13.8115 6.46257 13.9475 6.60787C14.0835 6.75316 14.1562 6.94653 14.1497 7.14544ZM15.1419 4.12369C15.1419 4.32261 15.0629 4.51337 14.9222 4.65403C14.7816 4.79468 14.5908 4.87369 14.3919 4.87369H1.60815C1.40924 4.87369 1.21848 4.79468 1.07782 4.65403C0.937172 4.51337 0.858154 4.32261 0.858154 4.12369C0.858154 3.92478 0.937172 3.73402 1.07782 3.59337C1.21848 3.45271 1.40924 3.3737 1.60815 3.3737H3.93315C4.17079 3.37434 4.40016 3.28654 4.57664 3.12739C4.75311 2.96825 4.86407 2.74913 4.8879 2.5127C4.94325 1.95806 5.2031 1.44389 5.61683 1.07038C6.03055 0.696858 6.56852 0.490745 7.1259 0.492195H8.8734C9.43079 0.490745 9.96876 0.696858 10.3825 1.07038C10.7962 1.44389 11.0561 1.95806 11.1114 2.5127C11.1352 2.74913 11.2462 2.96825 11.4227 3.12739C11.5991 3.28654 11.8285 3.37434 12.0662 3.3737H14.3912C14.5901 3.3737 14.7808 3.45271 14.9215 3.59337C15.0621 3.73402 15.1412 3.92478 15.1412 4.12369H15.1419ZM6.1899 3.3737H9.8109C9.71235 3.1485 9.64789 2.90988 9.61965 2.66569C9.60107 2.48083 9.51453 2.30944 9.3768 2.18473C9.23907 2.06002 9.05995 1.99088 8.87415 1.9907H7.12665C6.94085 1.99088 6.76174 2.06002 6.624 2.18473C6.48627 2.30944 6.39973 2.48083 6.38115 2.66569C6.35268 2.90992 6.28797 3.14854 6.18915 3.3737H6.1899ZM6.94515 14.7369V8.3507C6.94515 8.15178 6.86614 7.96102 6.72548 7.82036C6.58483 7.67971 6.39407 7.6007 6.19515 7.6007C5.99624 7.6007 5.80548 7.67971 5.66482 7.82036C5.52417 7.96102 5.44515 8.15178 5.44515 8.3507V14.7399C5.44515 14.9389 5.52417 15.1296 5.66482 15.2703C5.80548 15.4109 5.99624 15.4899 6.19515 15.4899C6.39407 15.4899 6.58483 15.4109 6.72548 15.2703C6.86614 15.1296 6.94515 14.9389 6.94515 14.7399V14.7369ZM10.5557 14.7369V8.3507C10.5557 8.15178 10.4766 7.96102 10.336 7.82036C10.1953 7.67971 10.0046 7.6007 9.80565 7.6007C9.60674 7.6007 9.41598 7.67971 9.27532 7.82036C9.13467 7.96102 9.05565 8.15178 9.05565 8.3507V14.7399C9.05565 14.9389 9.13467 15.1296 9.27532 15.2703C9.41598 15.4109 9.60674 15.4899 9.80565 15.4899C10.0046 15.4899 10.1953 15.4109 10.336 15.2703C10.4766 15.1296 10.5557 14.9389 10.5557 14.7399V14.7369Z" fill="#CC0905"/>
</svg>
